
<svg xmlns="http://www.w3.org/2000/svg" xmlns:xlink="http://www.w3.org/1999/xlink" version="1.1" width="640" height="160" viewBox="0 0 640 160" xml:space="preserve">
<desc>Created with Fabric.js 5.3.0</desc>
<defs>
</defs>
<g transform="matrix(1 0 0 1 640 512)" id="background-logo"  >
<rect style="stroke: none; stroke-width: 0; stroke-dasharray: none; stroke-linecap: butt; stroke-dashoffset: 0; stroke-linejoin: miter; stroke-miterlimit: 4; fill: rgb(255,255,255); fill-opacity: 0; fill-rule: nonzero; opacity: 1;"  paint-order="stroke"  x="-640" y="-512" rx="0" ry="0" width="1280" height="1024" />
</g>
<g transform="matrix(0.780150711058744 0 0 0.7801507110587438 270.0825118845501 491.81546008561327)" id="logo-logo"  >
<g style=""  paint-order="stroke"   >
		<g transform="matrix(0.30363740426495134 0 0 0.30363740426495134 0 0)"  >
<g style=""  paint-order="stroke"   >
		<g transform="matrix(1 0 0 1 -295.0816954500001 74.4633445375)"  >
<path style="stroke: none; stroke-width: 1; stroke-dasharray: none; stroke-linecap: butt; stroke-dashoffset: 0; stroke-linejoin: miter; stroke-miterlimit: 4; fill: rgb(0,0,0); fill-rule: nonzero; opacity: 1;"  paint-order="stroke"  transform=" translate(-476.35596465000003, -764.0835571)" d="M 749.7878418 716.0887451 L 746.361023 716.0887451 L 585.1605225 716.0887451 L 421.0864258 716.0887451 L 421.0864258 570.2139282 C 421.0864258 565.1506347000001 416.9827881 561.1002197 411.97268679999996 561.1002197 L 334.2118225 561.1002197 C 329.2017212 561.1002197 325.1508484 565.1506347000001 325.1508484 570.2139282 L 325.1508484 716.0887451000001 L 293.17272949999995 716.0887451000001 L 293.17272949999995 637.8482666000001 C 293.17272949999995 632.8381958000001 289.06906129999993 628.7344971000001 284.05899049999994 628.7344971000001 L 206.29768369999994 628.7344971000001 C 201.28761289999994 628.7344971000001 197.23713679999994 632.8381958000001 197.23713679999994 637.8482666000001 L 197.23713679999994 890.3184204000002 C 197.23713679999994 895.3285522000001 201.28761289999994 899.3789673000001 206.29768369999994 899.3789673000001 L 284.05899049999994 899.3789673000001 C 289.06906129999993 899.3789673000001 293.17272949999995 895.3285523000001 293.17272949999995 890.3184204000002 L 293.17272949999995 812.024353 L 325.1508484 812.024353 L 325.1508484 957.9527588000001 C 325.1508484 962.9628296000001 329.20172119999995 967.0668945000001 334.2118225 967.0668945000001 L 411.97268679999996 967.0668945000001 C 416.98278809999994 967.0668945000001 421.0864258 962.9628296000001 421.0864258 957.9527588000001 L 421.0864258 812.024353 L 614.822815 812.024353 L 609.3331299 844.0028686 L 589.484314 959.7009277 C 588.6867676 964.3480224 593.5650635000001 967.890686 597.7374878 965.6956176 L 752.4359131000001 884.2955322 C 754.3048096000001 883.3121948 755.4747925000001 881.3745117 755.4747925000001 879.2629394 L 755.4747925000001 802.9105834000001 L 755.4747925000001 725.2028808 L 755.4747925000001 721.7756957 C 755.4747925 718.6349487 752.9285889 716.0887451 749.7878418 716.0887451 z M 237.2102051 834.6759033 C 237.2102051 835.795166 236.304184 836.6479492 235.1849671 836.6479492 L 223.1927643 836.6479492 C 222.0739594 836.6479492 221.2211456 835.795166 221.2211456 834.6759033 L 221.2211456 662.7382813 C 221.2211456 661.6190796000001 222.0739593 660.7130738000001 223.1927643 660.7130738000001 L 235.1849671 660.7130738000001 C 236.304184 660.7130738000001 237.2102051 661.6190797 237.2102051 662.7382813 L 237.2102051 834.6759033 z M 365.1243286 716.0887451 L 365.1243286 812.024353 L 365.1243286 872.1973266 C 365.1243286 873.3165283 364.2182922 874.2225952 363.09869380000004 874.2225952 L 351.1068725 874.2225952 C 349.9876708 874.2225952 349.13485710000003 873.3165283 349.13485710000003 872.1973266 L 349.13485710000003 812.024353 L 349.13485710000003 716.0887451 L 349.13485710000003 630.7597656 C 349.13485710000003 629.6405029 349.98767080000005 628.734497 351.1068725 628.734497 L 363.09869380000004 628.734497 C 364.2182922 628.734497 365.1243286 629.6405029 365.1243286 630.7597656 L 365.1243286 716.0887451 z" stroke-linecap="round" />
</g>
		<g transform="matrix(1 0 0 1 -0.00006521317413898942 -141.47811885)"  >
<path style="stroke: none; stroke-width: 1; stroke-dasharray: none; stroke-linecap: butt; stroke-dashoffset: 0; stroke-linejoin: miter; stroke-miterlimit: 4; fill: rgb(0,0,0); fill-rule: nonzero; opacity: 1;"  paint-order="stroke"  transform=" translate(-771.437594886826, -548.1420937125)" d="M 482.1122437 629.267334 L 536.7419434000001 682.5114136 C 537.8079834000001 683.524231 539.2471924000001 684.1106568 540.6860352000001 684.1106568 L 1002.1888428000001 684.1106568 C 1003.6276856000001 684.1106568 1005.0668946000001 683.524231 1006.1329346000001 682.5114136 L 1060.7630616000001 629.267334 C 1064.1207276000002 625.9628906 1062.3082276000002 620.2599487 1057.6181641 619.5671387 L 866.3338013 591.7463379 C 864.5213623 591.4794922 862.9225464 590.3070679 862.0697022 588.6546631 L 776.5275269000001 415.33139040000003 C 774.4486695000002 411.1209107 768.3729859000001 411.1209107 766.2941285 415.33139040000003 L 680.8051148000001 588.6546631 C 679.9523316000001 590.3070679 678.3535157000001 591.4794922 676.4882813 591.7463379 L 485.2567139 619.5671387 C 480.5666199 620.2599487 478.7546082 625.9628906 482.1122437 629.267334 z M 600.3258057 640.6730957 C 611.9979859 637.7418822999999 623.6701661000001 634.8638306 635.4492188 632.3590088 C 656.1287232000001 627.9885254 676.9678956 624.2040405 697.8602295000001 621.0064087 C 699.6726685000001 620.7399902 701.2178955 619.6207886 702.0711060000001 617.9683227999999 C 706.1747437000001 609.8137817999999 710.3320313000002 601.6592407999999 714.6488648000001 593.5579223999999 C 720.2985840000001 583.0053710999999 726.0546876000001 572.5055541999999 732.0775757000001 562.1126098999999 C 738.1000977000001 551.6664429 744.4425659000001 541.4866943999999 750.8378906000002 531.2532958999999 C 757.4472046000002 521.1803588999999 764.0025024000001 511.0537719999999 771.4642334000001 501.3536071999999 C 768.2661743000001 513.1322021999999 764.2156982000001 524.4848022999998 760.2184448000002 535.8901977999999 C 756.0079956000002 547.1891479999999 751.7443237000001 558.4353637999999 747.1074219000002 569.5207519999999 C 742.5769654000002 580.6600952999999 737.7268677000002 591.5863037999999 732.7703858000002 602.5120849999998 C 727.8135377000002 613.4382934999999 722.6438599000002 624.2576293999998 717.3673707000003 635.0238037999999 L 714.8621217000002 640.0335083999998 L 709.3192140000002 640.8331299999999 C 685.6019899000003 644.2975464999998 661.7780153000002 647.0156250999999 637.8476564000002 648.8808594999998 C 625.8554079000003 649.8936768999998 613.8104250000002 650.4268799999999 601.8182375000002 650.9596558999998 C 589.7196047000002 651.2260743999998 577.6746218000002 651.5993042999999 565.4696047000002 650.9596558999998 C 576.9813843 646.9088135 588.6536255 643.8175659 600.3258057 640.6730957 z" stroke-linecap="round" />
</g>
		<g transform="matrix(1 0 0 1 295.1080856000001 74.4633445375)"  >
<path style="stroke: none; stroke-width: 1; stroke-dasharray: none; stroke-linecap: butt; stroke-dashoffset: 0; stroke-linejoin: miter; stroke-miterlimit: 4; fill: rgb(0,0,0); fill-rule: nonzero; opacity: 1;"  paint-order="stroke"  transform=" translate(-1066.5457457000002, -764.0835571)" d="M 1336.5771484 628.7344971 L 1258.8162840999998 628.7344971 C 1253.8061523 628.7344971 1249.7025145999999 632.8381958 1249.7025145999999 637.8482666 L 1249.7025145999999 716.0887451 L 1217.7239989999998 716.0887451 L 1217.7239989999998 570.2139282 C 1217.7239989999998 565.1506347000001 1213.6730956999997 561.1002197 1208.6634520999999 561.1002197 L 1130.9022215999998 561.1002197 C 1125.8920898 561.1002197 1121.7884520999999 565.1506347000001 1121.7884520999999 570.2139282 L 1121.7884520999999 716.0887451000001 L 957.7143555 716.0887451000001 L 796.5674438 716.0887451000001 L 793.1402587 716.0887451000001 C 789.9994506 716.0887451000001 787.453308 718.6349487000001 787.453308 721.7756958000001 L 787.453308 725.2028809000001 L 787.453308 802.9105835 L 787.453308 879.3157349 C 787.453308 881.4277344000001 788.6236571 883.3657837000001 790.4925536 884.3491211 L 945.1386107 965.6976318000001 C 949.311035 967.8923339 954.1885374999999 964.3493042000001 953.3909299999999 959.7025756 L 933.5416867999999 844.0028686 L 928.0520016999999 812.024353 L 1121.7884519 812.024353 L 1121.7884519 957.9527588000001 C 1121.7884519 962.9628296000001 1125.8920896 967.0668945000001 1130.9022214 967.0668945000001 L 1208.6634519 967.0668945000001 C 1213.6730954999998 967.0668945000001 1217.7239988 962.9628296000001 1217.7239988 957.9527588000001 L 1217.7239988 812.024353 L 1249.7025144 812.024353 L 1249.7025144 890.3184204 C 1249.7025144 895.3285522 1253.8061521 899.3789673 1258.8162839 899.3789673 L 1336.5771482 899.3789673 C 1341.58728 899.3789673 1345.6381834000001 895.3285523 1345.6381834000001 890.3184204 L 1345.6381834000001 637.8482666 C 1345.6381836 632.8381958 1341.5872803 628.7344971 1336.5771484 628.7344971 z M 1192.7276611 716.0887451 L 1192.7276611 812.024353 L 1192.7276611 872.1973266 C 1192.7276611 873.3165283 1191.8215332 874.2225952 1190.7019043 874.2225952 L 1178.7102051 874.2225952 C 1177.6441651 874.2225952 1176.7381592 873.3165283 1176.7381592 872.1973266 L 1176.7381592 812.024353 L 1176.7381592 716.0887451 L 1176.7381592 630.7597656 C 1176.7381592 629.6405029 1177.6441651 628.734497 1178.7102051 628.734497 L 1190.7019043 628.734497 C 1191.8215332 628.734497 1192.7276611 629.6405029 1192.7276611 630.7597656 L 1192.7276611 716.0887451 z M 1320.6413574 834.6759033 C 1320.6413574 835.795166 1319.7353515 836.6479492 1318.6160888000002 836.6479492 L 1306.6242675 836.6479492 C 1305.5582275000002 836.6479492 1304.6522216 835.795166 1304.6522216 834.6759033 L 1304.6522216 662.7382813 C 1304.6522216 661.6190796000001 1305.5582275000002 660.7130738000001 1306.6242675 660.7130738000001 L 1318.6160888000002 660.7130738000001 C 1319.7353515000002 660.7130738000001 1320.6413574 661.6190797 1320.6413574 662.7382813 L 1320.6413574 834.6759033 z" stroke-linecap="round" />
</g>
</g>
</g>
</g>
</g>
<g transform="matrix(1.9211538461538462 0 0 1.9211538461538462 839.2736451629245 508.5014251538462)" id="text-logo"  >
<g style=""  paint-order="stroke"   >
		<g transform="matrix(1 0 0 1 -5.684342e-14 0)" id="text-logo-path-0"  >
<path style="stroke: none; stroke-width: 0; stroke-dasharray: none; stroke-linecap: butt; stroke-dashoffset: 0; stroke-linejoin: miter; stroke-miterlimit: 4; fill: rgb(0,0,0); fill-rule: nonzero; opacity: 1;"  paint-order="stroke"  transform=" translate(-203.89000000000001, 18.47)" d="M 8.32 0 L 2.33 0 Q 2.12 0 2.12 -0.27 L 2.12 -0.27 L 2.23 -36.68 Q 2.23 -36.89 2.44 -36.89 L 2.44 -36.89 L 13.14 -36.89 Q 16.01 -36.89 18.42 -35.48 Q 20.83 -34.08 22.26 -31.72 Q 23.69 -29.36 23.69 -26.39 L 23.69 -26.39 Q 23.69 -24.43 23.11 -22.87 Q 22.52 -21.31 21.73 -20.22 Q 20.93 -19.13 20.3 -18.6 L 20.3 -18.6 Q 23.16 -15.42 23.16 -11.13 L 23.16 -11.13 L 23.21 -0.27 Q 23.21 0 22.95 0 L 22.95 0 L 16.96 0 Q 16.75 0 16.75 -0.16 L 16.75 -0.16 L 16.75 -11.13 Q 16.75 -13.04 15.4 -14.44 Q 14.04 -15.85 12.08 -15.85 L 12.08 -15.85 L 8.59 -15.85 L 8.53 -0.27 Q 8.53 0 8.32 0 L 8.32 0 Z M 8.59 -30.53 L 8.59 -22.21 L 13.14 -22.21 Q 14.79 -22.21 16.06 -23.43 Q 17.33 -24.64 17.33 -26.39 L 17.33 -26.39 Q 17.33 -28.09 16.09 -29.31 Q 14.84 -30.53 13.14 -30.53 L 13.14 -30.53 L 8.59 -30.53 Z M 40.97 0 L 34.98 0 Q 34.71 0 34.71 -0.27 L 34.71 -0.27 L 34.77 -36.68 Q 34.77 -36.89 34.98 -36.89 L 34.98 -36.89 L 40.92 -36.89 Q 41.13 -36.89 41.13 -36.68 L 41.13 -36.68 L 41.18 -0.27 Q 41.18 0 40.97 0 L 40.97 0 Z M 62.59 0.53 L 62.59 0.53 Q 59.73 0.53 57.4 -0.9 Q 55.07 -2.33 53.66 -4.74 Q 52.26 -7.15 52.26 -10.12 L 52.26 -10.12 L 52.26 -26.92 Q 52.26 -29.79 53.66 -32.2 Q 55.07 -34.61 57.43 -36.04 Q 59.78 -37.47 62.59 -37.47 L 62.59 -37.47 Q 65.51 -37.47 67.87 -36.07 Q 70.22 -34.66 71.6 -32.28 Q 72.98 -29.89 72.98 -26.92 L 72.98 -26.92 L 72.98 -24.49 Q 72.98 -24.27 72.72 -24.27 L 72.72 -24.27 L 66.78 -24.27 Q 66.57 -24.27 66.57 -24.49 L 66.57 -24.49 L 66.57 -26.5 Q 66.57 -28.51 65.43 -29.84 Q 64.29 -31.16 62.59 -31.16 L 62.59 -31.16 Q 61.06 -31.16 59.86 -29.89 Q 58.67 -28.62 58.67 -26.92 L 58.67 -26.92 L 58.67 -10.12 Q 58.67 -8.37 59.84 -7.13 Q 61 -5.88 62.59 -5.88 L 62.59 -5.88 Q 64.29 -5.88 65.43 -7.1 Q 66.57 -8.32 66.57 -10.12 L 66.57 -10.12 L 66.57 -12.72 L 62.86 -12.72 Q 62.59 -12.72 62.59 -12.98 L 62.59 -12.98 L 62.59 -18.92 Q 62.59 -19.19 62.86 -19.19 L 62.86 -19.19 L 72.77 -19.19 Q 72.98 -19.19 72.98 -18.92 L 72.98 -18.92 L 72.98 -10.12 Q 72.98 -7.15 71.58 -4.74 Q 70.17 -2.33 67.84 -0.9 Q 65.51 0.53 62.59 0.53 Z M 89.99 0 L 84 0 Q 83.79 0 83.79 -0.27 L 83.79 -0.27 L 83.85 -36.68 Q 83.85 -36.89 84.11 -36.89 L 84.11 -36.89 L 89.99 -36.89 Q 90.26 -36.89 90.26 -36.68 L 90.26 -36.68 L 90.21 -22.26 L 98.16 -22.26 L 98.16 -36.68 Q 98.16 -36.89 98.37 -36.89 L 98.37 -36.89 L 104.25 -36.89 Q 104.52 -36.89 104.52 -36.68 L 104.52 -36.68 L 104.62 -0.27 Q 104.62 0 104.36 0 L 104.36 0 L 98.42 0 Q 98.16 0 98.16 -0.27 L 98.16 -0.27 L 98.16 -15.85 L 90.21 -15.85 L 90.21 -0.27 Q 90.21 0 89.99 0 L 89.99 0 Z M 127.31 0 L 121.32 0 Q 121.11 0 121.11 -0.27 L 121.11 -0.27 L 121.11 -30.47 L 114.22 -30.47 Q 113.95 -30.47 113.95 -30.74 L 113.95 -30.74 L 114 -36.68 Q 114 -36.89 114.22 -36.89 L 114.22 -36.89 L 134.36 -36.89 Q 134.62 -36.89 134.62 -36.68 L 134.62 -36.68 L 134.62 -30.74 Q 134.62 -30.47 134.41 -30.47 L 134.41 -30.47 L 127.47 -30.47 L 127.52 -0.27 Q 127.52 0 127.31 0 L 127.31 0 Z M 153.01 0.53 L 153.01 0.53 Q 150.15 0.53 147.79 -0.93 Q 145.43 -2.38 144.03 -4.8 Q 142.62 -7.21 142.62 -10.12 L 142.62 -10.12 L 142.62 -12.56 Q 142.62 -12.83 142.89 -12.83 L 142.89 -12.83 L 148.82 -12.83 Q 149.04 -12.83 149.04 -12.56 L 149.04 -12.56 L 149.04 -10.12 Q 149.04 -8.37 150.2 -7.13 Q 151.37 -5.88 153.01 -5.88 L 153.01 -5.88 Q 154.65 -5.88 155.82 -7.15 Q 156.99 -8.43 156.99 -10.12 L 156.99 -10.12 Q 156.99 -12.08 154.44 -13.51 L 154.44 -13.51 Q 153.59 -13.99 151.79 -15 Q 149.99 -16.01 148.4 -16.91 L 148.4 -16.91 Q 145.49 -18.6 144.08 -21.17 Q 142.68 -23.74 142.68 -26.98 L 142.68 -26.98 Q 142.68 -29.95 144.11 -32.3 Q 145.54 -34.66 147.9 -36.04 Q 150.26 -37.42 153.01 -37.42 L 153.01 -37.42 Q 155.82 -37.42 158.18 -36.01 Q 160.54 -34.61 161.94 -32.25 Q 163.35 -29.89 163.35 -26.98 L 163.35 -26.98 L 163.35 -22.63 Q 163.35 -22.42 163.13 -22.42 L 163.13 -22.42 L 157.2 -22.42 Q 156.99 -22.42 156.99 -22.63 L 156.99 -22.63 L 156.93 -26.98 Q 156.93 -28.83 155.77 -30 Q 154.6 -31.16 153.01 -31.16 L 153.01 -31.16 Q 151.37 -31.16 150.2 -29.92 Q 149.04 -28.67 149.04 -26.98 L 149.04 -26.98 Q 149.04 -25.23 149.78 -24.06 Q 150.52 -22.9 152.48 -21.84 L 152.48 -21.84 Q 152.75 -21.68 153.51 -21.28 Q 154.28 -20.88 155.18 -20.38 Q 156.09 -19.88 156.8 -19.5 Q 157.52 -19.13 157.68 -19.03 L 157.68 -19.03 Q 160.33 -17.54 161.86 -15.4 Q 163.4 -13.25 163.4 -10.12 L 163.4 -10.12 Q 163.4 -7.1 161.99 -4.69 Q 160.59 -2.28 158.23 -0.87 Q 155.87 0.53 153.01 0.53 Z M 180.41 0 L 174.42 0 Q 174.16 0 174.16 -0.27 L 174.16 -0.27 L 174.21 -36.68 Q 174.21 -36.89 174.42 -36.89 L 174.42 -36.89 L 180.36 -36.89 Q 180.57 -36.89 180.57 -36.68 L 180.57 -36.68 L 180.62 -0.27 Q 180.62 0 180.41 0 L 180.41 0 Z M 210.68 0 L 190.91 0 Q 190.64 0 190.64 -0.27 L 190.64 -0.27 L 190.69 -6.04 L 203.68 -30.85 L 191.38 -30.85 Q 191.17 -30.85 191.17 -31.06 L 191.17 -31.06 L 191.17 -36.62 Q 191.17 -36.89 191.38 -36.89 L 191.38 -36.89 L 210.57 -36.89 Q 210.83 -36.89 210.83 -36.62 L 210.83 -36.62 L 210.83 -30.9 L 197.9 -6.2 L 210.68 -6.2 Q 210.89 -6.2 210.89 -5.94 L 210.89 -5.94 L 210.94 -0.27 Q 210.94 0 210.68 0 L 210.68 0 Z M 238.66 0 L 221.54 0 Q 221.33 0 221.33 -0.27 L 221.33 -0.27 L 221.38 -36.68 Q 221.38 -36.89 221.59 -36.89 L 221.59 -36.89 L 238.61 -36.89 Q 238.82 -36.89 238.82 -36.62 L 238.82 -36.62 L 238.82 -30.69 Q 238.82 -30.47 238.61 -30.47 L 238.61 -30.47 L 227.74 -30.47 L 227.74 -22.21 L 238.61 -22.21 Q 238.82 -22.21 238.82 -22 L 238.82 -22 L 238.87 -16.01 Q 238.87 -15.79 238.66 -15.79 L 238.66 -15.79 L 227.74 -15.79 L 227.74 -6.52 L 238.66 -6.52 Q 238.87 -6.52 238.87 -6.25 L 238.87 -6.25 L 238.87 -0.21 Q 238.87 0 238.66 0 L 238.66 0 Z M 271.73 0 L 265.74 0 Q 265.53 0 265.53 -0.27 L 265.53 -0.27 L 265.64 -36.68 Q 265.64 -36.89 265.85 -36.89 L 265.85 -36.89 L 272.31 -36.89 Q 272.53 -36.89 272.69 -36.68 L 272.69 -36.68 L 277.51 -29.68 L 282.33 -36.68 Q 282.49 -36.89 282.7 -36.89 L 282.7 -36.89 L 289.22 -36.89 Q 289.43 -36.89 289.43 -36.68 L 289.43 -36.68 L 289.54 -0.27 Q 289.54 0 289.33 0 L 289.33 0 L 283.34 0 Q 283.13 0 283.13 -0.27 L 283.13 -0.27 L 283.07 -27.29 L 277.51 -19.24 L 272 -27.29 L 271.94 -0.27 Q 271.94 0 271.73 0 L 271.73 0 Z M 318.37 0 L 301.25 0 Q 301.04 0 301.04 -0.27 L 301.04 -0.27 L 301.09 -36.68 Q 301.09 -36.89 301.31 -36.89 L 301.31 -36.89 L 318.32 -36.89 Q 318.53 -36.89 318.53 -36.62 L 318.53 -36.62 L 318.53 -30.69 Q 318.53 -30.47 318.32 -30.47 L 318.32 -30.47 L 307.45 -30.47 L 307.45 -22.21 L 318.32 -22.21 Q 318.53 -22.21 318.53 -22 L 318.53 -22 L 318.58 -16.01 Q 318.58 -15.79 318.37 -15.79 L 318.37 -15.79 L 307.45 -15.79 L 307.45 -6.52 L 318.37 -6.52 Q 318.58 -6.52 318.58 -6.25 L 318.58 -6.25 L 318.58 -0.21 Q 318.58 0 318.37 0 L 318.37 0 Z M 328.02 -0.27 L 328.02 -0.27 L 334.59 -36.68 Q 334.64 -36.89 334.85 -36.89 L 334.85 -36.89 L 342.54 -36.89 Q 342.75 -36.89 342.8 -36.68 L 342.8 -36.68 L 349.11 -0.27 Q 349.16 0 348.9 0 L 348.9 0 L 343.02 0 Q 342.8 0 342.75 -0.27 L 342.75 -0.27 L 342.17 -4.13 L 334.96 -4.13 L 334.38 -0.27 Q 334.32 0 334.11 0 L 334.11 0 L 328.23 0 Q 328.02 0 328.02 -0.27 Z M 338.41 -24.7 L 336.02 -9.8 L 341.11 -9.8 L 338.94 -24.7 L 338.62 -26.66 L 338.41 -24.7 Z M 376.83 0 L 359.71 0 Q 359.5 0 359.5 -0.27 L 359.5 -0.27 L 359.55 -36.62 Q 359.55 -36.89 359.82 -36.89 L 359.82 -36.89 L 365.7 -36.89 Q 365.97 -36.89 365.97 -36.62 L 365.97 -36.62 L 365.91 -6.52 L 376.83 -6.52 Q 377.1 -6.52 377.1 -6.25 L 377.1 -6.25 L 377.1 -0.27 Q 377.1 0 376.83 0 L 376.83 0 Z M 395.27 0.53 L 395.27 0.53 Q 392.41 0.53 390.05 -0.93 Q 387.69 -2.38 386.29 -4.8 Q 384.89 -7.21 384.89 -10.12 L 384.89 -10.12 L 384.89 -12.56 Q 384.89 -12.83 385.15 -12.83 L 385.15 -12.83 L 391.09 -12.83 Q 391.3 -12.83 391.3 -12.56 L 391.3 -12.56 L 391.3 -10.12 Q 391.3 -8.37 392.47 -7.13 Q 393.63 -5.88 395.27 -5.88 L 395.27 -5.88 Q 396.92 -5.88 398.08 -7.15 Q 399.25 -8.43 399.25 -10.12 L 399.25 -10.12 Q 399.25 -12.08 396.7 -13.51 L 396.7 -13.51 Q 395.86 -13.99 394.06 -15 Q 392.25 -16.01 390.66 -16.91 L 390.66 -16.91 Q 387.75 -18.6 386.34 -21.17 Q 384.94 -23.74 384.94 -26.98 L 384.94 -26.98 Q 384.94 -29.95 386.37 -32.3 Q 387.8 -34.66 390.16 -36.04 Q 392.52 -37.42 395.27 -37.42 L 395.27 -37.42 Q 398.08 -37.42 400.44 -36.01 Q 402.8 -34.61 404.2 -32.25 Q 405.61 -29.89 405.61 -26.98 L 405.61 -26.98 L 405.61 -22.63 Q 405.61 -22.42 405.4 -22.42 L 405.4 -22.42 L 399.46 -22.42 Q 399.25 -22.42 399.25 -22.63 L 399.25 -22.63 L 399.2 -26.98 Q 399.2 -28.83 398.03 -30 Q 396.86 -31.16 395.27 -31.16 L 395.27 -31.16 Q 393.63 -31.16 392.47 -29.92 Q 391.3 -28.67 391.3 -26.98 L 391.3 -26.98 Q 391.3 -25.23 392.04 -24.06 Q 392.78 -22.9 394.74 -21.84 L 394.74 -21.84 Q 395.01 -21.68 395.78 -21.28 Q 396.55 -20.88 397.45 -20.38 Q 398.35 -19.88 399.06 -19.5 Q 399.78 -19.13 399.94 -19.03 L 399.94 -19.03 Q 402.59 -17.54 404.13 -15.4 Q 405.66 -13.25 405.66 -10.12 L 405.66 -10.12 Q 405.66 -7.1 404.26 -4.69 Q 402.85 -2.28 400.49 -0.87 Q 398.14 0.53 395.27 0.53 Z" stroke-linecap="round" />
</g>
</g>
</g>
</svg>